HIERARCHY
ROOT Hips
{
	OFFSET 0.000000 0.000000 0.000000 
	CHANNELS 6 Xposition Yposition Zposition Zrotation Yrotation Xrotation
	JOINT LeftUpLeg
	{
		OFFSET 1.363060 -1.794630 0.839290 
		CHANNELS 3 Zrotation Yrotation Xrotation
		JOINT LeftLeg
		{
			OFFSET 2.448110 -6.726130 0.000000 
			CHANNELS 3 Zrotation Yrotation Xrotation
			JOINT LeftFoot
			{
				OFFSET 2.562200 -7.039590 0.000000 
				CHANNELS 3 Zrotation Yrotation Xrotation
				JOINT LeftToeBase
				{
					OFFSET 0.157640 -0.433110 2.322550 
					CHANNELS 3 Zrotation Yrotation Xrotation
					End Site
					{
						OFFSET 0.000000 0.000000 0.000000 
					}
				}
			}
		}
	}
	JOINT RightUpLeg
	{
		OFFSET -1.305520 -1.794630 0.839290 
		CHANNELS 3 Zrotation Yrotation Xrotation
		JOINT RightLeg
		{
			OFFSET -2.542530 -6.985550 0.000000 
			CHANNELS 3 Zrotation Yrotation Xrotation
			JOINT RightFoot
			{
				OFFSET -2.568260 -7.056230 0.000000 
				CHANNELS 3 Zrotation Yrotation Xrotation
				JOINT RightToeBase
				{
					OFFSET -0.164730 -0.452590 2.363150 
					CHANNELS 3 Zrotation Yrotation Xrotation
					End Site
					{
						OFFSET 0.000000 0.000000 0.000000 
					}
				}
			}
		}
	}
	JOINT Spine
	{
		OFFSET 0.028270 2.035590 -0.193380 
		CHANNELS 3 Zrotation Yrotation Xrotation
		JOINT Spine1
		{
			OFFSET 0.056720 2.048850 -0.042750 
			CHANNELS 3 Zrotation Yrotation Xrotation
			JOINT Neck1
			{
				OFFSET -0.054170 1.746240 0.172020 
				CHANNELS 3 Zrotation Yrotation Xrotation
				JOINT Head
				{
					OFFSET 0.104070 1.761360 -0.123970 
					CHANNELS 3 Zrotation Yrotation Xrotation
					End Site
					{
						OFFSET 0.000000 0.000000 0.000000 
					}
				}
			}
			JOINT LeftArm
			{
				OFFSET 3.362410 1.200890 -0.311210 
				CHANNELS 3 Zrotation Yrotation Xrotation
				JOINT LeftForeArm
				{
					OFFSET 4.983000 -0.000000 -0.000000 
					CHANNELS 3 Zrotation Yrotation Xrotation
					JOINT LeftHand
					{
						OFFSET 3.483560 -0.000000 -0.000000 
						CHANNELS 3 Zrotation Yrotation Xrotation
						JOINT LeftHandIndex1
						{
							OFFSET 0.715260 -0.000000 -0.000000 
							CHANNELS 3 Zrotation Yrotation Xrotation
							End Site
							{
								OFFSET 0.000000 0.000000 0.000000 
							}
						}
					}
				}
			}
			JOINT RightArm
			{
				OFFSET -3.136600 1.374050 -0.404650 
				CHANNELS 3 Zrotation Yrotation Xrotation
				JOINT RightForeArm
				{
					OFFSET -5.241900 -0.000000 -0.000000 
					CHANNELS 3 Zrotation Yrotation Xrotation
					JOINT RightHand
					{
						OFFSET -3.444170 -0.000000 -0.000000 
						CHANNELS 3 Zrotation Yrotation Xrotation
						JOINT RightHandIndex1
						{
							OFFSET -0.622530 -0.000000 -0.000000 
							CHANNELS 3 Zrotation Yrotation Xrotation
							End Site
							{
								OFFSET 0.000000 0.000000 0.000000 
							}
						}
					}
				}
			}
		}
	}
}
MOTION
Frames: 7
Frame Time: 0.041667
3.706000 1.108100 20.338500 -91.398200 -63.092000 1.251400 -13.430200 -4.653800 -54.917800 22.296100 19.873100 96.726900 4.918300 5.715900 41.033700 0.339900 3.746700 10.365100 2.844300 9.013900 -48.227100 -35.270900 -13.072100 140.360900 0.661700 17.372700 -4.275800 -0.394700 4.033800 -11.171900 3.179300 11.990800 9.040000 1.020100 6.002100 2.976200 -0.403900 6.115200 43.159000 -0.647900 3.055700 18.619900 -13.459600 -39.283400 34.774600 17.871900 -27.992900 -4.489000 0.000000 0.000000 -13.022100 -7.125000 0.000000 0.000000 71.411100 52.373700 79.367500 -23.219000 34.327400 -7.261400 0.000000 0.000000 -10.368200 7.125000 0.000000 0.000000 
3.701000 1.107000 20.352700 -91.393900 -63.050000 1.334700 -13.254200 -4.971500 -55.098400 22.355800 19.866400 96.902600 4.941900 5.907100 41.109900 0.344500 3.771500 10.434600 2.759400 9.011900 -48.352700 -35.282700 -13.058200 140.413400 0.671200 17.532600 -4.364000 -0.376300 3.939800 -10.907400 3.293000 11.995200 9.184400 1.096300 5.999500 2.962000 -0.448000 6.055800 43.153200 -0.640200 2.979000 18.555900 -13.755200 -38.806700 34.588100 18.048700 -28.219400 -4.572200 0.000000 0.000000 -11.933700 -7.125000 0.000000 0.000000 71.299100 52.947500 78.651700 -22.493100 33.529800 -6.856200 0.000000 0.000000 -9.546100 7.125000 0.000000 0.000000 
3.696000 1.106700 20.365400 -91.369800 -63.026700 1.422500 -13.083000 -5.271300 -55.309800 22.408100 19.860400 97.056400 4.970200 6.098500 41.207200 0.348000 3.790300 10.487300 2.653800 9.029500 -48.484800 -35.293000 -13.046000 140.459000 0.681500 17.693700 -4.443200 -0.366400 3.888100 -10.762000 3.374000 11.994700 9.306100 1.129700 5.995400 2.926400 -0.529000 6.035700 43.121200 -0.652700 2.925200 18.492300 -13.991000 -38.287800 34.505000 18.311700 -28.554500 -4.697300 0.000000 0.000000 -11.309300 -7.125000 0.000000 0.000000 71.238500 53.519900 77.942900 -21.810800 32.762500 -6.483200 0.000000 0.000000 -8.762600 7.125000 0.000000 0.000000 
3.690900 1.107100 20.376400 -91.323400 -63.017200 1.513600 -12.914800 -5.555600 -55.552500 22.451300 19.855300 97.183700 5.004100 6.264500 41.333200 0.348800 3.794800 10.500000 2.527900 9.061600 -48.624700 -35.302400 -13.035000 140.500500 0.690800 17.840800 -4.517300 -0.364700 3.879400 -10.737500 3.416600 11.987100 9.408400 1.113400 5.988700 2.875000 -0.649300 6.055700 43.069500 -0.688100 2.896400 18.439300 -14.155100 -37.731000 34.516500 18.687900 -29.029000 -4.878500 0.000000 0.000000 -11.237100 -7.125000 0.000000 0.000000 71.228900 54.097700 77.235800 -21.176300 32.033500 -6.143200 0.000000 0.000000 -8.026600 7.125000 0.000000 0.000000 
3.685800 1.108200 20.385600 -91.246000 -63.018700 1.601700 -12.752000 -5.826800 -55.825100 22.483800 19.851400 97.279300 5.043900 6.374400 41.492700 0.346100 3.779900 10.458100 2.375600 9.101900 -48.775500 -35.311300 -13.024400 140.540100 0.698200 17.966100 -4.588600 -0.370200 3.908200 -10.818600 3.417500 11.970800 9.493700 1.046500 5.978800 2.812400 -0.811500 6.118800 43.010600 -0.748600 2.895100 18.411300 -14.246600 -37.140500 34.601000 19.197400 -29.663200 -5.128200 0.000000 0.000000 -11.755900 -7.125000 0.000000 0.000000 71.264500 54.684800 76.528100 -20.593300 31.350600 -5.836900 0.000000 0.000000 -7.347400 7.125000 0.000000 0.000000 
3.681100 1.110000 20.393000 -91.127300 -63.029800 1.679800 -12.597700 -6.086000 -56.126100 22.503800 19.849000 97.338300 5.089100 6.398100 41.687200 0.339400 3.743800 10.357100 2.189700 9.143500 -48.942900 -35.320000 -13.014100 140.578800 0.703700 18.068000 -4.656500 -0.381100 3.964500 -10.976800 3.375500 11.945200 9.563800 0.932100 5.965000 2.742100 -0.975300 6.194500 42.915400 -0.809600 2.902800 18.368600 -14.267800 -36.519900 34.727700 19.850200 -30.461400 -5.455200 0.000000 0.000000 -12.842100 -7.125000 0.000000 0.000000 71.338800 55.283300 75.820700 -20.063800 30.719200 -5.563900 0.000000 0.000000 -6.733600 7.125000 0.000000 0.000000 
3.676800 1.112500 20.398800 -90.958600 -63.050600 1.742200 -12.455100 -6.334200 -56.454100 22.510300 19.848200 97.357400 5.138500 6.306900 41.915300 0.329100 3.687100 10.198000 1.964300 9.180600 -49.134800 -35.329400 -13.003000 140.620300 0.707800 18.151600 -4.718000 -0.394700 4.034100 -11.172700 3.292900 11.909700 9.619200 0.777900 5.946500 2.665100 -1.133200 6.281500 42.793400 -0.866500 2.919000 18.317200 -14.229600 -35.869000 34.857800 20.640400 -31.406200 -5.861400 0.000000 0.000000 -14.394300 -7.125000 0.000000 0.000000 71.445200 55.892100 75.121400 -19.587900 30.142600 -5.322800 0.000000 0.000000 -6.194600 7.125000 0.000000 0.000000 
